<svg width="561" height="90" viewBox="0 0 561 90" fill="none" xmlns="http://www.w3.org/2000/svg">
<path d="M26.7836 0H50.073C53.492 0 56.1419 0.794191 58.0311 2.39102C59.9204 3.98785 60.865 6.27749 60.865 9.25993C60.865 10.6709 60.5808 12.4029 60.0123 14.4391L56.05 27.5432H39.8243L42.3071 19.3056C42.5662 18.3678 42.6916 17.6327 42.6916 17.1089C42.6916 14.9122 41.3959 13.8139 38.8128 13.8139H29.6509C26.7 13.9744 24.6352 15.3853 23.4398 18.0467L18.9341 33.035C18.7753 33.5081 18.675 33.939 18.6248 34.3277C18.5746 34.7248 18.5496 35.0965 18.5496 35.4683C18.5496 37.6143 19.9205 38.6873 22.6624 38.6873H52.7062L48.5181 52.4166H10.7168C3.57783 52.4166 0 49.5694 0 43.8664C0 42.1935 0.309299 40.3348 0.927896 38.2986L8.15044 14.4475C8.82755 12.2001 9.78053 10.1724 11.0261 8.36436C12.2716 6.5563 13.7011 5.04396 15.3312 3.81043C16.9613 2.58535 18.7502 1.63908 20.6896 0.988515C22.629 0.337954 24.6603 0.00844885 26.7836 0.00844885V0Z" fill="white"/>
<path d="M84.3801 13.6533C84.2212 14.1265 84.1209 14.5574 84.0707 14.946C84.0206 15.3431 83.9955 15.7149 83.9955 16.0866C83.9955 18.2326 85.3665 19.3056 88.1084 19.3056H101.768L107.594 0.00844885H123.895L115.352 28.329C112.869 36.4906 109.015 42.5484 103.782 46.494C98.5493 50.4396 91.4354 52.4166 82.4323 52.4166H56.2673L60.4554 38.6873H84.9903C90.1648 38.6873 94.0686 36.8032 96.7102 33.035H76.2129C69.0739 33.035 65.4961 30.1877 65.4961 24.4848C65.4961 22.8119 65.8054 20.9531 66.424 18.917L72.1084 0H88.4845L84.3717 13.6533H84.3801Z" fill="white"/>
<path d="M176.058 25.0255L172.095 37.9691C171.418 40.2672 170.465 42.3118 169.22 44.0861C167.974 45.8603 166.528 47.3727 164.873 48.5978C163.218 49.8313 161.404 50.7691 159.439 51.4197C157.475 52.0702 155.452 52.3997 153.387 52.3997H115.811L131.644 0H183.581L180.48 10.1978C179.753 12.6564 178.975 14.6672 178.148 16.2387C177.32 17.8102 176.442 19.1197 175.506 20.1589C174.578 21.2066 173.55 22.0768 172.438 22.7865C171.326 23.4962 170.123 24.2397 168.827 25.0255H176.058ZM157.266 33.1871H138.014L136.384 38.6028H150.202C153.721 38.6028 156.079 36.7947 157.266 33.1871ZM163.084 13.8054H143.832L142.202 19.3732H161.454L163.084 13.8054Z" fill="white"/>
<path d="M197.625 33.1871C197.416 33.8123 197.316 34.522 197.316 35.3077C197.316 37.5044 198.687 38.6028 201.429 38.6028H231.397L227.209 52.4082H189.868C186.449 52.4082 183.799 51.5971 181.909 49.9749C180.02 48.3527 179.076 46.0293 179.076 42.9962C179.076 41.2726 179.335 39.5913 179.853 37.9776L191.339 0H243.042L238.854 13.8054H203.452L201.822 19.3732H237.224L233.036 33.1786H197.634L197.625 33.1871Z" fill="white"/>
<path d="M256.308 35.9329L251.343 52.4082H234.967L250.799 0H302.737L296.216 21.4939C295.539 23.6906 294.611 25.6676 293.424 27.4165C292.237 29.1654 290.85 30.6609 289.27 31.8859C287.69 33.111 285.968 34.0826 284.103 34.7923C282.239 35.502 280.325 35.8822 278.361 35.9329C278.62 37.7663 280.041 38.6788 282.632 38.6788H291.017L286.829 52.4082H278.369C266.883 52.4082 261.132 48.3781 261.132 40.3263C261.132 38.9661 261.291 37.5044 261.6 35.9329H256.308ZM282.239 13.8054H263.222L260.739 22.1191H274.323C277.892 22.1191 280.275 20.235 281.462 16.4668L282.239 13.797V13.8054Z" fill="white"/>
<path d="M300.981 50.0172C299.092 48.4203 298.147 46.1307 298.147 43.1483C298.147 41.7373 298.431 40.0137 299 37.9691L306.223 14.118C307.619 9.5134 309.884 6.00713 313.019 3.60766C316.145 1.19974 319.99 0 324.546 0H362.356L358.243 13.7294H328.199C324.58 13.7294 322.197 15.6135 321.06 19.3817L316.479 34.3699C316.429 34.5304 316.404 34.843 316.404 35.3077C316.404 37.3439 317.675 38.4507 320.208 38.6028H329.37C331.025 38.6028 332.438 38.1212 333.6 37.1496C334.762 36.178 335.606 34.8346 336.124 33.111L338.766 24.3242H354.991L350.879 37.9776C349.432 42.5822 347.033 46.1391 343.698 48.6485C340.362 51.1578 336.542 52.4166 332.245 52.4166H308.956C305.537 52.4166 302.887 51.6224 300.998 50.0256L300.981 50.0172Z" fill="#CE0E2D"/>
<path d="M389.825 52.4082L394.791 35.9329H375.539L370.573 52.4082H354.272L365.608 14.8277C366.285 12.5803 367.263 10.5357 368.559 8.71076C369.854 6.87736 371.342 5.31432 373.023 4.00475C374.703 2.69518 376.525 1.70667 378.498 1.02231C380.463 0.346403 382.511 0 384.634 0H422.051L406.218 52.4082H389.825ZM387.652 13.8054C384.032 13.8054 381.65 15.6895 380.513 19.4577L379.735 22.1275H398.987L401.47 13.8139H387.652V13.8054Z" fill="#CE0E2D"/>
<path d="M442.289 14.042L430.26 52.4082H413.959L429.792 0H444.078C445.683 0 447.213 0.245017 448.659 0.743498C450.105 1.24198 451.392 2.07842 452.504 3.25281C453.616 4.42719 454.535 6.01558 455.263 8.00106C455.99 9.98654 456.458 12.4705 456.659 15.4529V27.4587L463.254 15.4529C465.219 12.4705 467.158 9.98654 469.081 8.00106C470.995 6.01558 472.868 4.42719 474.707 3.25281C476.546 2.07842 478.326 1.24198 480.065 0.743498C481.804 0.245017 483.467 0 485.072 0H501.223L485.39 52.4082H469.089L480.884 14.2785L458.214 52.4082H442.69L442.306 14.042H442.289Z" fill="#CE0E2D"/>
<path d="M515.25 33.1871C515.041 33.8123 514.941 34.522 514.941 35.3077C514.941 37.5044 516.312 38.6028 519.053 38.6028H549.022L544.834 52.4082H507.492C504.073 52.4082 501.423 51.5971 499.534 49.9749C497.645 48.3527 496.7 46.0293 496.7 42.9962C496.7 41.2726 496.96 39.5913 497.478 37.9776L508.964 0H560.667L556.479 13.8054H521.076L519.446 19.3732H554.849L550.66 33.1786H515.258L515.25 33.1871Z" fill="#CE0E2D"/>
<path d="M435.615 78.5216H406.282C406.986 77.2884 407.735 76.2313 408.528 75.2624C409.321 74.2934 410.246 73.5006 411.303 72.8399C412.36 72.1793 413.593 71.6507 415.047 71.2984C416.456 70.946 418.218 70.7698 420.288 70.7698H428.7C428.832 70.1973 428.921 69.7568 428.921 69.4485C428.921 68.2153 428.128 67.5986 426.542 67.5986H409.497L411.831 59.8909H429.978C433.061 59.8909 435.307 60.5075 436.672 61.7407C437.994 62.974 438.698 64.6036 438.698 66.5856C438.698 67.9069 438.434 69.2723 437.994 70.7698L435.615 78.5216ZM405.181 81.5607H434.69L432.312 89.3125H402.802L405.181 81.5607Z" fill="white"/>
<path d="M445.681 59.8909H475.147L466.161 89.3125H436.696L445.681 59.8909ZM452.64 67.5986L448.368 81.5607H459.291L463.563 67.5986H452.64Z" fill="white"/>
<path d="M503.359 78.5216H474.026C474.731 77.2884 475.479 76.2313 476.272 75.2624C477.065 74.2934 477.99 73.5006 479.047 72.8399C480.104 72.1793 481.337 71.6507 482.791 71.2984C484.2 70.946 485.962 70.7698 488.032 70.7698H496.444C496.577 70.1973 496.665 69.7568 496.665 69.4485C496.665 68.2153 495.872 67.5986 494.286 67.5986H477.241L479.575 59.8909H497.722C500.805 59.8909 503.051 60.5075 504.416 61.7407C505.738 62.974 506.442 64.6036 506.442 66.5856C506.442 67.9069 506.178 69.2723 505.738 70.7698L503.359 78.5216ZM472.925 81.5607H502.434L500.056 89.3125H470.546L472.925 81.5607Z" fill="white"/>
<path d="M529.369 70.7698C530.866 70.7698 532.144 70.946 533.157 71.2984C534.17 71.6507 534.963 72.0912 535.579 72.6637C536.152 73.2804 536.548 73.941 536.812 74.7338C537.033 75.5266 537.165 76.4075 537.165 77.2884V77.905C537.165 78.1693 537.121 78.3895 537.121 78.5216H518.622C516.992 78.5216 515.627 78.4336 514.482 78.1693C513.337 77.9491 512.456 77.5967 511.751 77.1563C511.046 76.7158 510.518 76.1432 510.21 75.4826C509.901 74.8219 509.769 74.0732 509.769 73.2363C509.769 72.4435 509.901 71.4745 510.254 70.3294L513.425 59.8909H542.935L540.6 67.5986H520.428L519.459 70.7698H529.369ZM536.196 81.5607C535.711 82.794 535.139 83.8951 534.434 84.864C533.729 85.833 532.893 86.6699 531.835 87.3305C530.778 87.9912 529.545 88.4757 528.048 88.828C526.55 89.1804 524.744 89.3125 522.718 89.3125H504.484L506.862 81.5607H536.196Z" fill="white"/>
<path d="M167.528 78.3129H157.793C156.235 78.3129 154.98 78.1831 153.985 77.837C152.99 77.4908 152.211 77.0581 151.649 76.4524C151.043 75.8466 150.654 75.1544 150.437 74.3755C150.178 73.5967 150.091 72.7746 150.091 71.866V71.3035C150.091 71.0439 150.091 70.8708 150.134 70.6978L151.043 67.7123C151.476 66.5008 152.081 65.4191 152.817 64.4672C153.552 63.5153 154.461 62.7365 155.586 62.0875C156.668 61.4385 157.966 60.9625 159.48 60.6164C160.951 60.2702 162.725 60.0972 164.802 60.0972H182.196L179.859 67.7123H163.115C162.552 67.7123 162.076 67.8421 161.644 68.0152C161.211 68.2315 160.865 68.4911 160.562 68.7507C160.259 69.0536 159.999 69.3997 159.783 69.7459C159.567 70.092 159.394 70.4382 159.307 70.6978H168.134C171.336 70.6978 173.629 71.1737 175.013 72.0391C176.355 72.9044 177.047 74.1592 177.047 75.8034C177.047 76.5389 176.874 77.4475 176.571 78.5292L176.484 78.7456C176.008 80.3032 175.403 81.6878 174.624 82.9426C173.845 84.2406 172.85 85.3223 171.682 86.1876C170.513 87.0963 169.172 87.7885 167.615 88.2645C166.057 88.7837 164.24 89 162.249 89H144.423L146.759 81.4282H163.504C165.494 81.4282 166.836 80.3898 167.528 78.3129Z" fill="#CE0E2D"/>
<path d="M195.589 60.0972L190.96 75.2842C190.57 76.4091 190.397 77.4475 190.397 78.3129C190.397 79.4811 190.787 80.3032 191.566 80.7359C192.344 81.2118 193.556 81.4282 195.2 81.4282H206.666L204.33 89H191.522C187.715 89 184.946 88.3943 183.258 87.1828C181.527 85.9713 180.705 84.1108 180.705 81.558C180.705 79.9138 181.052 77.9668 181.744 75.7168L186.503 60.0972H195.589Z" fill="#CE0E2D"/>
<path d="M216.48 89C212.499 89 210.509 87.4424 210.509 84.2839C210.509 83.3752 210.682 82.3368 211.028 81.2118L215.052 68.0584C215.398 66.8469 215.961 65.722 216.653 64.7268C217.345 63.7317 218.124 62.9096 219.033 62.2173C219.941 61.525 220.937 61.0058 222.018 60.6596C223.1 60.3135 224.225 60.0972 225.436 60.0972H238.417C240.321 60.0972 241.792 60.5731 242.83 61.4385C243.869 62.3038 244.431 63.5586 244.431 65.2028C244.431 65.9816 244.258 66.9335 243.955 68.0584L239.974 81.0388C239.196 83.5916 237.854 85.5386 235.994 86.9232C234.133 88.3078 232.013 89 229.677 89H216.48ZM228.076 81.3849C229.72 81.2984 230.845 80.5196 231.537 79.0485L234.133 70.741L234.263 69.5295C234.263 68.318 233.528 67.7123 232.143 67.7123H227.037C225.393 67.7988 224.225 68.5777 223.576 70.0488L221.066 78.3129C220.893 78.7456 220.85 79.1783 220.85 79.6109C220.85 80.8224 221.586 81.3849 223.143 81.3849H228.076Z" fill="#CE0E2D"/>
<path d="M248.723 60.0972H257.463L256.251 81.3849H257.852C259.886 81.3849 261.184 80.4763 261.79 78.5725L267.414 60.0972H276.847L270.659 80.433C270.227 81.7311 269.664 82.8993 268.972 83.9377C268.28 84.9761 267.458 85.8848 266.506 86.6203C265.554 87.3991 264.472 87.9616 263.347 88.3943C262.222 88.827 261.011 89 259.756 89H247.035L248.723 60.0972Z" fill="#CE0E2D"/>
<path d="M310.14 60.0972L301.313 89H292.184L294.953 79.9138H284.223L281.453 89H272.367L278.684 68.2748C279.03 67.0633 279.593 65.9383 280.328 64.8999C281.021 63.9047 281.843 63.0394 282.795 62.3038C283.747 61.6115 284.742 61.0491 285.867 60.6596C286.948 60.3135 288.073 60.0972 289.285 60.0972H310.14ZM298.674 67.7123H290.972C288.939 67.7123 287.597 68.7507 286.992 70.8276L286.559 72.2987H297.289L298.674 67.7123Z" fill="#CE0E2D"/>
<path d="M314.75 89H305.621L314.447 60.0972H323.577L320.548 70.092L332.577 60.0972H343.437L326.519 74.6351L334.61 89H324.312L317.995 78.3562L314.75 89Z" fill="#CE0E2D"/>
<path d="M338.072 89L340.408 81.3849H347.115L351.268 67.7123H344.562L346.898 60.0972H369.527L367.191 67.7123H360.398L356.244 81.3849H363.037L360.701 89H338.072Z" fill="#CE0E2D"/>
<path d="M402.802 60.0972L393.976 89H384.846L387.615 79.9138H376.885L374.116 89H365.029L371.347 68.2748C371.693 67.0633 372.255 65.9383 372.991 64.8999C373.683 63.9047 374.505 63.0394 375.457 62.3038C376.409 61.6115 377.404 61.0491 378.529 60.6596C379.611 60.3135 380.736 60.0972 381.947 60.0972H402.802ZM391.336 67.7123H383.635C381.601 67.7123 380.26 68.7507 379.654 70.8276L379.221 72.2987H389.952L391.336 67.7123Z" fill="#CE0E2D"/>
</svg>
